<svg id="Layer_1" data-name="Layer 1" xmlns="http://www.w3.org/2000/svg" xmlns:xlink="http://www.w3.org/1999/xlink" viewBox="0 0 31.35 644"><defs><style>.cls-1,.cls-3,.cls-4{fill:none;}.cls-2{clip-path:url(#clip-path);}.cls-3,.cls-4{stroke:#e4dcb1;stroke-miterlimit:10;}.cls-4{stroke-dasharray:5;}.cls-5{fill:#e4dcb1;}</style><clipPath id="clip-path"><rect class="cls-1" width="31.35" height="644"/></clipPath></defs><g class="cls-2"><path class="cls-3" d="M30.86-5.8s7.23-8.87,15.38.52c0,0,10.95-.52,6.27,8.64,0,0,8.38,1.91,2.4,7.71,0,0,3.64,8.23-7.07,7.13,0,0-4.05,5.8-11.23.75,0,0-7.64,5.57-13.62-.81,0,0-10.43,2-7.07-6.14,0,0-7.63-10.09,4.73-11.37C20.65.63,18.94-10.27,30.86-5.8Z"/><path class="cls-4" d="M34.07,189.17s7.23-8.87,15.39.53c0,0,10.94-.53,6.26,8.63,0,0,8.38,1.92,2.4,7.71,0,0,3.65,8.24-7.07,7.13,0,0-4,5.8-11.23.76,0,0-7.63,5.56-13.62-.81,0,0-10.43,2-7.07-6.15,0,0-7.63-10.09,4.73-11.36C23.86,195.61,22.15,184.71,34.07,189.17Z"/><path class="cls-5" d="M-3,81.6s7.24-8.87,15.39.52c0,0,10.94-.52,6.27,8.64,0,0,8.38,1.91,2.39,7.71,0,0,3.65,8.23-7.06,7.13,0,0-4,5.8-11.23.75,0,0-7.64,5.57-13.62-.81,0,0-10.43,2-7.07-6.14,0,0-7.64-10.09,4.73-11.37C-13.25,88-15,77.13-3,81.6Z"/><path class="cls-3" d="M34.19,363.31s7.24-8.87,15.39.52c0,0,10.94-.52,6.27,8.64,0,0,8.38,1.91,2.39,7.71,0,0,3.65,8.23-7.06,7.13,0,0-4,5.8-11.23.76,0,0-7.64,5.56-13.62-.82,0,0-10.43,2-7.07-6.14,0,0-7.64-10.09,4.73-11.36C24,369.75,22.28,358.85,34.19,363.31Z"/><path class="cls-3" d="M22.76,473.85s7.24-8.87,15.39.52c0,0,10.94-.52,6.27,8.64,0,0,8.38,1.91,2.39,7.71,0,0,3.65,8.23-7.07,7.13,0,0-4,5.79-11.22.75,0,0-7.64,5.56-13.63-.81,0,0-10.43,2-7.06-6.15,0,0-7.64-10.08,4.73-11.36C12.56,480.28,10.85,469.38,22.76,473.85Z"/><path class="cls-4" d="M26.4,533.29s7.24-8.87,15.39.52c0,0,10.94-.52,6.27,8.64,0,0,8.38,1.91,2.39,7.71,0,0,3.65,8.23-7.06,7.13,0,0-4,5.8-11.23.75,0,0-7.64,5.57-13.62-.81,0,0-10.43,2-7.07-6.14,0,0-7.64-10.09,4.73-11.37C16.2,539.72,14.49,528.82,26.4,533.29Z"/><path class="cls-3" d="M41.76,543.77s7.24-8.87,15.39.52c0,0,10.94-.52,6.27,8.64,0,0,8.38,1.92,2.39,7.71,0,0,3.65,8.23-7.07,7.13,0,0-4,5.8-11.22.76,0,0-7.64,5.56-13.63-.82,0,0-10.43,2-7.06-6.14,0,0-7.64-10.09,4.73-11.36C31.56,550.21,29.85,539.31,41.76,543.77Z"/><path class="cls-5" d="M-1.71,425.71s7.24-8.87,15.39.52c0,0,10.94-.52,6.27,8.64,0,0,8.37,1.92,2.39,7.71,0,0,3.65,8.23-7.07,7.13,0,0-4,5.8-11.23.76,0,0-7.63,5.56-13.62-.82,0,0-10.43,2-7.06-6.14,0,0-7.64-10.09,4.73-11.36C-11.91,432.15-13.62,421.25-1.71,425.71Z"/><path class="cls-5" d="M11,559.17s7.24-8.87,15.39.52c0,0,10.94-.52,6.27,8.64,0,0,8.38,1.91,2.39,7.71,0,0,3.65,8.23-7.07,7.13,0,0-4,5.8-11.22.75,0,0-7.64,5.57-13.63-.81,0,0-10.43,2-7.06-6.14,0,0-7.64-10.09,4.73-11.37C.81,565.6-.9,554.71,11,559.17Z"/><path class="cls-5" d="M-10.73,280.5s7.24-8.87,15.39.52c0,0,11-.52,6.27,8.64,0,0,8.38,1.91,2.4,7.71,0,0,3.64,8.23-7.07,7.13,0,0-4,5.79-11.23.75,0,0-7.64,5.57-13.62-.81,0,0-10.43,2-7.07-6.15,0,0-7.64-10.08,4.73-11.36C-20.93,286.93-22.64,276-10.73,280.5Z"/><path class="cls-4" d="M7.3,272s7.24-8.87,15.39.52c0,0,10.94-.52,6.27,8.64,0,0,8.38,1.91,2.39,7.71,0,0,3.65,8.23-7.06,7.13,0,0-4.05,5.8-11.23.75,0,0-7.64,5.57-13.62-.81,0,0-10.43,2-7.07-6.14,0,0-7.64-10.09,4.73-11.37C-2.9,278.42-4.61,267.53,7.3,272Z"/><path class="cls-4" d="M26.4,627.39s7.24-8.87,15.39.53c0,0,10.94-.53,6.27,8.63,0,0,8.38,1.92,2.39,7.71,0,0,3.65,8.24-7.06,7.13,0,0-4,5.8-11.23.76,0,0-7.64,5.56-13.62-.81,0,0-10.43,2-7.07-6.15,0,0-7.64-10.09,4.73-11.36C16.2,633.83,14.49,622.93,26.4,627.39Z"/></g></svg>